<?xml version="1.0" encoding="UTF-8" standalone="no"?>
<!-- Created with Inkscape (http://www.inkscape.org/) -->
<svg xmlns:dc="http://purl.org/dc/elements/1.1/" xmlns:cc="http://creativecommons.org/ns#" xmlns:rdf="http://www.w3.org/1999/02/22-rdf-syntax-ns#" xmlns:svg="http://www.w3.org/2000/svg" xmlns="http://www.w3.org/2000/svg" xmlns:sodipodi="http://sodipodi.sourceforge.net/DTD/sodipodi-0.dtd" xmlns:inkscape="http://www.inkscape.org/namespaces/inkscape" width="72mm" height="72mm" viewBox="0 0 72 72" version="1.1" id="svg8" inkscape:version="0.92.3 (2405546, 2018-03-11)" sodipodi:docname="icone environnement.svg">
  <defs id="defs2"/>
  <sodipodi:namedview id="base" pagecolor="#ffffff" bordercolor="#666666" borderopacity="1.0" inkscape:pageopacity="0.0" inkscape:pageshadow="2" inkscape:zoom="0.7" inkscape:cx="309.65978" inkscape:cy="153.38161" inkscape:document-units="mm" inkscape:current-layer="layer1" showgrid="false" inkscape:snap-global="false" inkscape:window-width="1366" inkscape:window-height="745" inkscape:window-x="-8" inkscape:window-y="-8" inkscape:window-maximized="1"/>
  <metadata id="metadata5">
    <rdf:RDF>
      <cc:Work rdf:about="">
        <dc:format>image/svg+xml</dc:format>
        <dc:type rdf:resource="http://purl.org/dc/dcmitype/StillImage"/>
        <dc:title/>
      </cc:Work>
    </rdf:RDF>
  </metadata>
  <g inkscape:label="Calque 1" inkscape:groupmode="layer" id="layer1" transform="translate(0,-225)">
    <ellipse style="opacity:1;fill:#90b3c6;fill-opacity:1;stroke:none;stroke-width:0.45769912;stroke-linecap:square;stroke-linejoin:miter;stroke-miterlimit:4;stroke-dasharray:none;stroke-dashoffset:0;stroke-opacity:1" id="path837" cx="36.261902" cy="261.26727" rx="34.771152" ry="34.771149"/>
    <path style="fill:#2a588e;fill-opacity:1;stroke:none;stroke-width:0.26458332px;stroke-linecap:butt;stroke-linejoin:miter;stroke-opacity:1" d="m 48.948138,270.12571 c -2.991479,1.93663 -8.079497,10.46409 -13.796352,12.66227 -5.716856,2.19818 -9.756597,2.08444 -15.875,0 -4.805277,-1.63708 -13.1728183,-9.25617 -16.5777993,-12.48244 4.0856508,15.17748 17.8450323,25.72688 33.5628083,25.7328 13.921029,-0.003 26.498606,-8.30827 31.968074,-21.10983 -1.581689,-2.32473 -3.827203,-5.17673 -5.863724,-6.12572 -3.96491,-1.96187 -8.993094,-1.5417 -13.418007,1.32292 z" id="path839" inkscape:connector-curvature="0" sodipodi:nodetypes="sssccccs"/>
    <path sodipodi:nodetypes="ssczzzzcccs" inkscape:connector-curvature="0" id="path830" d="m 56.977696,268.69124 c -2.703804,-0.01 -5.543785,0.82973 -8.171078,2.5306 -2.103076,1.3615 -5.834111,5.55346 -9.499604,8.94061 0,0 4.568088,4.77697 6.901313,4.54332 2.333226,-0.23366 3.233208,-4.31126 5.612578,-4.27623 2.379369,0.035 3.274516,4.60175 5.613094,4.54391 2.338577,-0.0578 3.371784,-4.56933 5.077726,-4.54391 1.705941,0.0254 2.130712,0.91495 2.130712,0.91495 1.193046,-1.77981 2.34954,-3.56888 3.21183,-5.58711 -1.58169,-2.32474 -3.593342,-4.90947 -5.629863,-5.85846 -1.610745,-0.797 -3.396737,-1.20111 -5.246708,-1.20768 z" style="fill:#244a78;fill-opacity:1;stroke:none;stroke-width:0.26458332px;stroke-linecap:butt;stroke-linejoin:miter;stroke-opacity:1"/>
    <path id="path862" d="m 51.281294,258.57487 c -1.002003,0 -1.819117,0.76019 -1.910409,1.73755 h -0.0093 v 0.18219 8.88563 3.65727 h 3.839483 v -3.65727 -8.88563 -0.18219 h -0.0093 c -0.09129,-0.97736 -0.908406,-1.73755 -1.910409,-1.73755 z" style="opacity:1;fill:#6595b0;fill-opacity:1;stroke:none;stroke-width:0.20522191;stroke-linecap:square;stroke-linejoin:miter;stroke-miterlimit:4;stroke-dasharray:none;stroke-dashoffset:0;stroke-opacity:1" inkscape:connector-curvature="0"/>
    <path style="fill:#3f8c63;fill-opacity:1;stroke:none;stroke-width:0.26458332px;stroke-linecap:butt;stroke-linejoin:miter;stroke-opacity:1" d="m 57.119437,267.59511 c -2.703804,-0.01 -5.543785,0.82973 -8.171078,2.5306 -2.103076,1.36149 -5.243523,5.97868 -8.909016,9.36583 0,0 3.9775,3.29342 6.310726,3.05976 2.333225,-0.23365 3.233207,-4.31125 5.612577,-4.27622 2.379369,0.035 3.274516,4.60175 5.613094,4.54391 2.338577,-0.0578 3.371784,-4.56933 5.077726,-4.54391 1.705941,0.0254 2.481503,2.35748 2.481503,2.35748 1.193046,-1.77982 2.23261,-3.68581 3.0949,-5.70405 -1.581689,-2.32473 -3.827203,-5.17673 -5.863724,-6.12572 -1.610745,-0.79701 -3.396737,-1.20111 -5.246708,-1.20768 z" id="path849" inkscape:connector-curvature="0" sodipodi:nodetypes="ssczzzzcccs"/>
    <path style="fill:#6595b0;fill-opacity:1;stroke:none;stroke-width:0.99999994px;stroke-linecap:butt;stroke-linejoin:miter;stroke-opacity:1" d="M 57.773438 36.050781 C 57.041603 36.033747 56.289557 36.044065 55.519531 36.082031 C 54.596801 36.127527 53.711229 36.221889 52.84375 36.339844 A 131.41853 131.41851 0 0 0 7.5820312 115.41406 C 8.3228143 115.55562 8.859375 115.64453 8.859375 115.64453 L 109.05859 115.64453 C 109.05859 115.64453 125.35369 110.37134 129.26172 99.720703 C 133.16975 89.07007 130.46201 71.052265 119.39453 63.304688 C 108.32705 55.55711 82.794922 64.365234 82.794922 64.365234 C 84.980894 62.725762 80.460301 36.578833 57.773438 36.050781 z " transform="matrix(0.26458333,0,0,0.26458333,0,225)" id="path871"/>
    <path style="fill:#ffffff;fill-opacity:1;stroke:none;stroke-width:0.26458332px;stroke-linecap:butt;stroke-linejoin:miter;stroke-opacity:1" d="m 0.47295503,254.06069 c 0,0 -4.28396503,-0.55636 -6.36304803,-3.67831 -2.079083,-3.12195 -1.883871,-5.18314 0.818019,-8.82268 2.70189,-3.63954 10.14003,-0.79903 10.14003,-0.79903 0,0 1.231265,-7.42936 7.750819,-7.75081 6.519553,-0.32145 7.813302,7.03577 7.216273,7.48354 0,0 6.7555,-2.33057 9.683771,-0.28069 2.928271,2.04988 3.64463,6.81715 2.61063,9.63513 -1.033999,2.81798 -5.34539,4.21285 -5.34539,4.21285 z" id="path854-1" inkscape:connector-curvature="0" sodipodi:nodetypes="czzczczzcc"/>
    <path style="fill:#244a78;fill-opacity:1;stroke:none;stroke-width:0.26458332px;stroke-linecap:butt;stroke-linejoin:miter;stroke-opacity:1" d="m 2.7253418,270.33034 -0.014986,0.0155 c 4.0992133,15.15574 17.8476522,25.68657 33.5514392,25.69249 5.129272,-10e-4 10.074388,-1.1328 14.550533,-3.19774 -1.955286,0.20905 -3.810699,0.34821 -5.266345,0.3421 -5.71574,-0.024 -11.361468,-0.75502 -16.44189,-2.17351 -5.080423,-1.4185 -9.193402,-2.6395 -13.796057,-6.0477 -4.497618,-3.33042 -12.1541459,-14.06571 -12.5036288,-14.55725 -0.023119,-0.0219 -0.05638,-0.0524 -0.079065,-0.0739 z" id="path875" inkscape:connector-curvature="0"/>
    <path sodipodi:nodetypes="cczczczzc" inkscape:connector-curvature="0" id="path860" d="m 50.222188,264.29626 -4.607364,-0.32909 c -2.491826,-1.17475 -2.913681,-1.93654 -2.797328,-4.77191 0.116354,-2.83538 2.830248,-4.17734 5.759206,-4.44283 0.301828,-1.21577 1.182775,-2.88644 2.961876,-2.96187 1.7791,-0.0754 3.55481,0.78548 3.72977,3.18128 1.340865,-0.14234 3.728638,0.64728 3.674921,4.71706 -0.05372,4.06978 -2.242137,4.2359 -3.674921,4.55251 -1.432784,0.31661 -5.04616,0.0548 -5.04616,0.0548 z" style="fill:#6595b0;fill-opacity:1;stroke:none;stroke-width:0.10859659px;stroke-linecap:butt;stroke-linejoin:miter;stroke-opacity:1"/>
    <path id="path864" d="m 48.936572,270.0007 h -0.0093 v 0 0 2.57984 h 4.313889 v -4.41791 0 0 0 c -1.335902,0.2178 -3.030957,1.3089 -4.304585,1.83807 z" style="opacity:1;fill:#2a7c51;fill-opacity:1;stroke:none;stroke-width:0.20522191;stroke-linecap:square;stroke-linejoin:miter;stroke-miterlimit:4;stroke-dasharray:none;stroke-dashoffset:0;stroke-opacity:1" inkscape:connector-curvature="0" sodipodi:nodetypes="cccccccccccc"/>
    <path inkscape:connector-curvature="0" style="opacity:1;fill:#6e553d;fill-opacity:1;stroke:none;stroke-width:0.20522191;stroke-linecap:square;stroke-linejoin:miter;stroke-miterlimit:4;stroke-dasharray:none;stroke-dashoffset:0;stroke-opacity:1" d="m 50.279033,258.17397 c -1.002003,0 -1.819117,0.76019 -1.910409,1.73755 h -0.0093 v 0.18219 8.88563 3.65727 h 3.839483 v -3.65727 -8.88563 -0.18219 h -0.0093 c -0.09129,-0.97736 -0.908406,-1.73755 -1.910409,-1.73755 z" id="rect832"/>
    <path style="fill:#49a373;fill-opacity:1;stroke:none;stroke-width:0.10859659px;stroke-linecap:butt;stroke-linejoin:miter;stroke-opacity:1" d="m 49.620831,263.49445 -4.607363,-0.32909 c -2.491826,-1.17475 -2.913681,-1.93654 -2.797328,-4.77191 0.116353,-2.83538 2.830248,-4.17734 5.759205,-4.44283 0.301828,-1.21577 1.182775,-2.88644 2.961876,-2.96187 1.7791,-0.0754 3.55481,0.78548 3.72977,3.18128 1.340865,-0.14234 3.728638,0.64728 3.674921,4.71706 -0.05372,4.06978 -2.242137,4.2359 -3.674921,4.55251 -1.432784,0.31661 -5.04616,0.0548 -5.04616,0.0548 z" id="path840" inkscape:connector-curvature="0" sodipodi:nodetypes="cczczczzc"/>
    <path sodipodi:nodetypes="czczc" inkscape:connector-curvature="0" id="path868" d="m 16.750144,260.76904 c 0,0 2.538101,0.37095 3.474504,1.06908 0.936403,0.69813 1.870887,2.80633 1.870887,2.80633 0,0 2.045771,-2.42445 3.340869,-3.27405 1.295098,-0.8496 4.276312,-1.73726 4.276312,-1.73726" style="fill:none;stroke:#6595b0;stroke-width:1;stroke-linecap:round;stroke-linejoin:round;stroke-miterlimit:4;stroke-dasharray:none;stroke-opacity:1"/>
    <path style="fill:none;stroke:#515151;stroke-width:1;stroke-linecap:round;stroke-linejoin:round;stroke-miterlimit:4;stroke-dasharray:none;stroke-opacity:1" d="m 16.482874,260.30132 c 0,0 2.538101,0.37095 3.474504,1.06908 0.936403,0.69813 1.870887,2.80633 1.870887,2.80633 0,0 2.045771,-2.42445 3.340869,-3.27405 1.295098,-0.8496 4.276312,-1.73726 4.276312,-1.73726" id="path866" inkscape:connector-curvature="0" sodipodi:nodetypes="czczc"/>
    <path sodipodi:nodetypes="czzczzc" inkscape:connector-curvature="0" id="path876" d="m 10.948163,267.53846 c 0,0 0.875326,-0.82406 1.526072,-0.78365 0.650746,0.0404 1.334325,0.60481 1.814789,1.23735 0.480464,0.63255 0.824904,2.43347 0.824904,2.43347 0,0 0.845659,-1.67094 1.361091,-2.18599 0.515433,-0.51505 0.936778,-0.79448 1.526073,-0.94865 0.589294,-0.15416 1.856034,0.0825 1.856034,0.0825" style="fill:none;stroke:#6595b0;stroke-width:0.87296933;stroke-linecap:round;stroke-linejoin:round;stroke-miterlimit:4;stroke-dasharray:none;stroke-opacity:1"/>
    <path style="fill:none;stroke:#515151;stroke-width:0.87296933;stroke-linecap:round;stroke-linejoin:round;stroke-miterlimit:4;stroke-dasharray:none;stroke-opacity:1" d="m 10.617434,267.06599 c 0,0 0.875326,-0.82406 1.526072,-0.78365 0.650746,0.0404 1.334325,0.60481 1.814789,1.23735 0.480464,0.63255 0.824904,2.43347 0.824904,2.43347 0,0 0.845659,-1.67094 1.361091,-2.18599 0.515433,-0.51505 0.936778,-0.79448 1.526073,-0.94865 0.589294,-0.15416 1.856034,0.0825 1.856034,0.0825" id="path874" inkscape:connector-curvature="0" sodipodi:nodetypes="czzczzc"/>
  </g>
</svg>